<svg xmlns="http://www.w3.org/2000/svg" width="216" height="32.531" viewBox="0 0 216 32.531"><defs><style>.a{fill:#fff;}.b{fill:#fe0;}</style></defs><g transform="translate(-23 -20.219)"><g transform="translate(23.156 20.219)"><path class="a" d="M14.969,0H7.391L.156-22.406H7.422l3.422,13.8a15.424,15.424,0,0,1,.453,2.5h.156A17.241,17.241,0,0,1,11.938-8.7l3.328-13.7H22.3ZM45.984-11.266a12.4,12.4,0,0,1-1.453,6.039,10.361,10.361,0,0,1-4.062,4.141A11.656,11.656,0,0,1,34.625.391a11.667,11.667,0,0,1-5.742-1.43,10.118,10.118,0,0,1-4.023-4.016,11.838,11.838,0,0,1-1.437-5.852,12.912,12.912,0,0,1,1.453-6.156,10.324,10.324,0,0,1,4.078-4.227,11.863,11.863,0,0,1,5.969-1.492,11.53,11.53,0,0,1,5.758,1.43A9.747,9.747,0,0,1,44.6-17.273,12.786,12.786,0,0,1,45.984-11.266Zm-7.156.188a7.777,7.777,0,0,0-1.062-4.359,3.319,3.319,0,0,0-2.906-1.594A3.675,3.675,0,0,0,31.719-15.5a7.207,7.207,0,0,0-1.125,4.328,7.123,7.123,0,0,0,1.117,4.266A3.564,3.564,0,0,0,34.75-5.375a3.479,3.479,0,0,0,2.109-.687,4.4,4.4,0,0,0,1.453-1.969A8.145,8.145,0,0,0,38.828-11.078ZM49.156,0V-22.406h6.75V-5.281h7.719V0ZM86-10.234q0,5.391-2.461,8.008T75.953.391q-4.781,0-7.258-2.617t-2.477-7.883v-12.3H73V-9.859a5.8,5.8,0,0,0,.8,3.32,2.633,2.633,0,0,0,2.3,1.164,2.663,2.663,0,0,0,2.3-1.094A5.508,5.508,0,0,0,79.2-9.7v-12.7H86ZM105.813,0,97.906-10.812a25.771,25.771,0,0,1-1.531-2.312h-.062q.094,1.656.094,3.719V0h-6.25V-22.406h6.375l7.578,10.281q.141.2.344.484t.406.578q.2.3.383.578a3.557,3.557,0,0,1,.273.5h.063a20.307,20.307,0,0,1-.094-2.375V-22.406h6.25V0Zm21.656-17.125V0h-6.781V-17.125h-6.266v-5.281h19.391v5.281ZM136.5,0V-22.406h14.469v5.281H143.25v3.266h6.766v5.281H143.25v3.3h7.719V0Zm17.656,0V-22.406h14.469v5.281h-7.719v3.266h7.719v5.281h-7.719v3.3h7.719V0Zm29.281,0-1.672-4.828a6,6,0,0,0-1.258-2.234,2.3,2.3,0,0,0-1.68-.812h-.266V0h-6.75V-22.406h8.969q4.7,0,6.945,1.539a5.228,5.228,0,0,1,2.242,4.617,5.842,5.842,0,0,1-1.3,3.875,7.436,7.436,0,0,1-3.883,2.266v.063a5.425,5.425,0,0,1,2.367,1.422,8.8,8.8,0,0,1,1.7,2.922l2.2,5.7ZM182.8-15.3a2.346,2.346,0,0,0-.687-1.781,3.035,3.035,0,0,0-2.156-.656h-1.391v5.125h1.219a3.1,3.1,0,0,0,2.188-.766A2.507,2.507,0,0,0,182.8-15.3Zm32.156,4.031A12.4,12.4,0,0,1,213.5-5.227a10.361,10.361,0,0,1-4.062,4.141A11.656,11.656,0,0,1,203.594.391a11.667,11.667,0,0,1-5.742-1.43,10.118,10.118,0,0,1-4.023-4.016,11.838,11.838,0,0,1-1.437-5.852,12.912,12.912,0,0,1,1.453-6.156,10.324,10.324,0,0,1,4.078-4.227,11.863,11.863,0,0,1,5.969-1.492,11.53,11.53,0,0,1,5.758,1.43,9.747,9.747,0,0,1,3.922,4.078A12.786,12.786,0,0,1,214.953-11.266Zm-7.156.188a7.778,7.778,0,0,0-1.062-4.359,3.319,3.319,0,0,0-2.906-1.594,3.675,3.675,0,0,0-3.141,1.531,7.207,7.207,0,0,0-1.125,4.328,7.123,7.123,0,0,0,1.117,4.266,3.564,3.564,0,0,0,3.039,1.531,3.479,3.479,0,0,0,2.109-.687,4.4,4.4,0,0,0,1.453-1.969A8.145,8.145,0,0,0,207.8-11.078Z" transform="translate(-0.156 22.781)"/><path class="b" d="M8.953-8.359V0H2.2V-22.406h6.75V-8.359Z" transform="translate(134.131 22.781)"/><path class="b" d="M8.953-8.359V0H2.2V-22.406h6.75V-8.359Z" transform="translate(162.947 0.375) rotate(180)"/></g><rect class="b" width="216" height="6.75" transform="translate(23 46)"/><rect class="b" width="13" height="5.32" transform="translate(161 29.12)"/></g></svg>